<?xml version="1.0" encoding="utf-8"?>
<!-- Generator: Adobe Illustrator 24.0.1, SVG Export Plug-In . SVG Version: 6.00 Build 0)  -->
<svg version="1.1" id="Layer_1" xmlns="http://www.w3.org/2000/svg" xmlns:xlink="http://www.w3.org/1999/xlink" x="0px" y="0px"
	 viewBox="0 0 56 70" style="enable-background:new 0 0 56 70;" xml:space="preserve">
<path d="M52.9,14c-0.2-0.4-0.6-0.6-1-0.6l-7.7,0.5c-2-3.1-4.7-5.1-7.8-5.1c-4.7,0-10.1,2.9-10.8,11c-1.7-0.9-4.9-2-9.9-2.3
	c-1.5-0.1-3-0.4-4.4-1c-1.7-0.8-3-1.7-3.8-2.7c-0.2-0.3-0.7-0.5-1.1-0.4c-0.4,0.1-0.7,0.4-0.7,0.8c-0.1,0.4-1.3,10.5,4,16.6
	c1.6,1.9,3.7,3.2,6.1,3.9c-2,0.9-4.5,2.2-6.7,4.2c0,0-2.2,1.8-4.9,2.5c-0.4-0.1-0.9,0.1-1.1,0.5c-0.2,0.5,0,1.1,0.4,1.3
	c0.1,0.1,8,3.9,17.6,3.9c7.6,0,16.2-2.5,22.7-11.3c2.1-2.9,3.3-6.9,3.3-11.4c0-1.4-0.1-2.7-0.4-4l6-5.4C53,14.8,53.1,14.4,52.9,14z
	 M42.2,34.7C36.5,42.5,28.4,46,18.3,45.1c-4.7-0.4-8.8-1.7-11.3-2.6c2-0.9,3.4-2.1,3.5-2.2c4.3-4,9.9-5.1,9.9-5.1
	c0.5-0.1,0.8-0.6,0.8-1.1s-0.5-0.9-1-0.9c-3.8-0.1-6.8-1.3-8.9-3.8c-3.3-3.8-3.7-9.7-3.6-12.9c0.8,0.6,1.8,1.2,2.9,1.7
	c1.6,0.7,3.3,1.1,5.1,1.2c7.1,0.3,10.2,2.7,10.3,2.7c0.3,0.2,0.7,0.3,1.1,0.1c0.3-0.2,0.6-0.5,0.6-0.9c0-7.9,4.6-10.7,8.9-10.7
	c2.6,0,4.9,1.8,6.4,4.5c0,0,0,0,0,0c1.4,2.4,2.2,5.7,2.2,9.2C45.1,28.5,44,32.2,42.2,34.7z M46.2,18.3c-0.3-0.9-0.6-1.7-0.9-2.5
	l4-0.2L46.2,18.3z"/>
<path d="M36.1,15.9c0-0.1-0.1-0.1-0.1-0.2c0,0-0.1-0.1-0.1-0.1c-0.1-0.1-0.2-0.2-0.3-0.2c-0.4-0.1-0.8-0.1-1.1,0.2
	c-0.1,0-0.1,0.1-0.1,0.1c0,0.1-0.1,0.1-0.1,0.2c0,0.1,0,0.1,0,0.2c0,0.1,0,0.1,0,0.2c0,0.1,0,0.3,0.1,0.4c0,0.1,0.1,0.2,0.2,0.3
	c0,0,0.1,0.1,0.1,0.1c0,0,0.1,0.1,0.2,0.1c0.1,0,0.1,0,0.2,0.1c0.1,0,0.1,0,0.2,0c0.1,0,0.3,0,0.4-0.1c0.1,0,0.2-0.1,0.3-0.2
	c0.1-0.1,0.2-0.2,0.2-0.3c0-0.1,0.1-0.3,0.1-0.4c0-0.1,0-0.1,0-0.2C36.2,16,36.2,15.9,36.1,15.9z"/>
</svg>
